<svg width="28" height="28" viewBox="0 0 28 28"  xmlns="http://www.w3.org/2000/svg">
<g clip-path="url(#clip0_2439_2320)">
<path d="M10.9845 23.3473L3.28357 23.3473C2.57766 23.3473 2.00009 22.7697 2.00009 22.0638C2.00009 21.3579 2.57766 20.7803 3.28357 20.7803L10.9845 20.7803C11.6904 20.7803 12.2679 21.3579 12.2679 22.0638C12.2679 22.7697 11.6904 23.3473 10.9845 23.3473ZM10.9845 16.2881L3.28357 16.2881C2.57766 16.2882 2.00009 15.7106 2.00009 15.0047C2.00009 14.2988 2.57766 13.7212 3.28357 13.7212L10.9845 13.7212C11.6904 13.7212 12.2679 14.2988 12.2679 15.0047C12.2679 15.7106 11.6904 16.2881 10.9845 16.2881ZM10.9845 9.22901L3.28357 9.22901C2.57766 9.22901 2.00009 8.65144 2.00009 7.94553C2.00009 7.23961 2.57766 6.66205 3.28357 6.66205L10.9845 6.66205C11.6904 6.66205 12.2679 7.23961 12.2679 7.94553C12.2679 8.65144 11.6904 9.22901 10.9845 9.22901ZM17.5944 5.18604L15.2969 7.48347C15.0403 7.74017 15.0403 8.13805 15.2969 8.39474L17.5944 10.6922C17.6829 10.7833 17.7966 10.8457 17.921 10.8715C18.0453 10.8973 18.1745 10.8853 18.2919 10.8369C18.4094 10.7886 18.5096 10.7061 18.5797 10.6003C18.6499 10.4944 18.6866 10.3699 18.6853 10.243L18.6853 5.63526C18.6853 5.07053 17.9923 4.78816 17.5944 5.18604ZM18.6853 9.22901L19.0704 9.22901C22.0866 9.22901 24.7819 11.4238 25.0771 14.4271C25.156 15.2302 25.0661 16.0408 24.8132 16.8071C24.5603 17.5734 24.1499 18.2782 23.6084 18.8765C23.0669 19.4748 22.4063 19.9532 21.669 20.2811C20.9317 20.609 20.134 20.779 19.3271 20.7803L16.1184 20.7803C15.4125 20.7803 14.8349 21.3579 14.8349 22.0638C14.8349 22.7697 15.4125 23.3473 16.1184 23.3473L19.3271 23.3473C24.2813 23.3473 28.2601 18.9835 27.5927 13.9009C27.0536 9.69106 23.2674 6.66205 19.0319 6.66205L18.6853 6.66205" />
</g>
<defs>
<clipPath id="clip0_2439_2320">
<rect width="28" height="28" transform="translate(28 28) rotate(180)"/>
</clipPath>
</defs>
</svg>
