<svg width="274" height="274" viewBox="0 0 274 274" fill="black" xmlns="http://www.w3.org/2000/svg">
<path d="M170.94 137L265.94 41.9999C270.449 37.4992 272.985 31.3917 272.99 25.0211C272.996 18.6505 270.471 12.5386 265.97 8.02988C261.469 3.5212 255.362 0.985095 248.991 0.979469C242.62 0.973843 236.509 3.49916 232 7.99989L137 103L41.9999 7.99989C37.4912 3.49121 31.3761 0.958252 24.9999 0.958252C18.6236 0.958252 12.5086 3.49121 7.99989 7.99989C3.49121 12.5086 0.958252 18.6236 0.958252 24.9999C0.958252 31.3761 3.49121 37.4912 7.99989 41.9999L103 137L7.99989 232C3.49121 236.509 0.958252 242.624 0.958252 249C0.958252 255.376 3.49121 261.491 7.99989 266C12.5086 270.509 18.6236 273.042 24.9999 273.042C31.3761 273.042 37.4912 270.509 41.9999 266L137 171L232 266C236.509 270.509 242.624 273.042 249 273.042C255.376 273.042 261.491 270.509 266 266C270.509 261.491 273.042 255.376 273.042 249C273.042 242.624 270.509 236.509 266 232L170.94 137Z"/>
</svg>
