<svg width="28" height="28" viewBox="0 0 28 28" fill="black" xmlns="http://www.w3.org/2000/svg">
<path d="M19.289 3.15001C19.6519 2.77546 20.0858 2.47685 20.5653 2.27159C21.0447 2.06633 21.5603 1.95851 22.0818 1.95441C22.6033 1.9503 23.1205 2.05001 23.6031 2.2477C24.0858 2.4454 24.5243 2.73714 24.8931 3.10594C25.2619 3.47474 25.5536 3.91323 25.7513 4.39587C25.949 4.87851 26.0487 5.39566 26.0446 5.9172C26.0405 6.43875 25.9327 6.95427 25.7274 7.43374C25.5222 7.91321 25.2235 8.34706 24.849 8.71001L23.309 10.25L17.749 4.69001L19.289 3.15001ZM16.689 5.75001L4.50199 17.937C4.06199 18.377 3.74199 18.923 3.57399 19.523L2.02699 25.048C1.99125 25.1761 1.9902 25.3114 2.02395 25.44C2.0577 25.5686 2.12504 25.6859 2.21906 25.7799C2.31308 25.874 2.43041 25.9413 2.55903 25.9751C2.68764 26.0088 2.82292 26.0078 2.95099 25.972L8.47499 24.425C9.07493 24.2571 9.6215 23.9375 10.062 23.497L22.25 11.311L16.69 5.75101L16.689 5.75001Z" />
</svg>
