<svg width="21" height="22" viewBox="0 0 21 22" fill="#D45B90" xmlns="http://www.w3.org/2000/svg">
<rect width="21" height="21" transform="translate(0 0.5)" fill="transparent"/>
<path d="M10.5 1.8125C8.68289 1.8125 6.90658 2.35134 5.3957 3.36087C3.88483 4.37041 2.70724 5.8053 2.01186 7.4841C1.31648 9.16289 1.13454 11.0102 1.48904 12.7924C1.84354 14.5746 2.71857 16.2116 4.00346 17.4965C5.28836 18.7814 6.92541 19.6565 8.70761 20.011C10.4898 20.3655 12.3371 20.1835 14.0159 19.4881C15.6947 18.7928 17.1296 17.6152 18.1391 16.1043C19.1487 14.5934 19.6875 12.8171 19.6875 11C19.6875 8.56332 18.7195 6.22645 16.9965 4.50346C15.2736 2.78047 12.9367 1.8125 10.5 1.8125ZM10.5 5.75C10.6947 5.75 10.885 5.80773 11.0469 5.9159C11.2088 6.02406 11.3349 6.1778 11.4094 6.35767C11.484 6.53754 11.5034 6.73547 11.4655 6.92642C11.4275 7.11737 11.3337 7.29277 11.1961 7.43043C11.0584 7.5681 10.883 7.66185 10.692 7.69984C10.5011 7.73782 10.3032 7.71832 10.1233 7.64382C9.94343 7.56931 9.78969 7.44314 9.68153 7.28126C9.57336 7.11938 9.51563 6.92907 9.51563 6.73438C9.51563 6.4733 9.61934 6.22292 9.80395 6.03832C9.98855 5.85371 10.2389 5.75 10.5 5.75ZM13.125 16.332H7.875V14.8555H9.76172V11.082H8.53125V9.60547H11.2383V14.8555H13.125V16.332Z" />
</svg>
