<svg width="24" height="24" viewBox="0 0 24 24"  xmlns="http://www.w3.org/2000/svg">
<path d="M12.5932 23.258L12.5822 23.26L12.5112 23.295L12.4912 23.299L12.4772 23.295L12.4062 23.26C12.3962 23.256 12.3872 23.259 12.3822 23.265L12.3782 23.275L12.3612 23.703L12.3662 23.723L12.3762 23.736L12.4802 23.81L12.4952 23.814L12.5072 23.81L12.6112 23.736L12.6232 23.72L12.6272 23.703L12.6102 23.276C12.6082 23.266 12.6012 23.259 12.5932 23.258ZM12.8582 23.145L12.8452 23.147L12.6602 23.24L12.6502 23.25L12.6472 23.261L12.6652 23.691L12.6702 23.703L12.6782 23.71L12.8792 23.803C12.8912 23.807 12.9022 23.803 12.9082 23.795L12.9122 23.781L12.8782 23.167C12.8752 23.155 12.8682 23.147 12.8582 23.145ZM12.1432 23.147C12.1386 23.1449 12.1335 23.1444 12.1287 23.1454C12.1238 23.1465 12.1194 23.1492 12.1162 23.153L12.1102 23.167L12.0762 23.781C12.0762 23.793 12.0832 23.801 12.0932 23.805L12.1082 23.803L12.3092 23.71L12.3192 23.702L12.3232 23.691L12.3402 23.261L12.3372 23.249L12.3272 23.239L12.1432 23.147Z"/>
<path d="M12.9863 5.73999C13.3705 5.52204 13.6718 5.18301 13.8431 4.77582C14.0143 4.36863 14.046 3.91618 13.9331 3.48911C13.8201 3.06204 13.569 2.68437 13.2189 2.41505C12.8687 2.14573 12.4392 1.99992 11.9975 2.00037C11.5557 2.00082 11.1266 2.1475 10.777 2.41753C10.4274 2.68756 10.177 3.06574 10.0649 3.49304C9.95287 3.92034 9.98544 4.37272 10.1575 4.77956C10.3296 5.1864 10.6316 5.52482 11.0163 5.74199L11.0063 5.75999C10.3513 7.12699 9.44128 9.08499 8.03628 9.81999C6.88228 10.423 5.22628 10.12 3.99628 9.89399C3.97655 9.6143 3.87882 9.34574 3.71419 9.11878C3.54955 8.89182 3.3246 8.71555 3.06486 8.60997C2.80511 8.50438 2.52097 8.47371 2.24468 8.52144C1.96839 8.56916 1.711 8.69337 1.50173 8.87997C1.29246 9.06657 1.13967 9.30809 1.06071 9.57712C0.981749 9.84616 0.979774 10.1319 1.05501 10.402C1.13024 10.6721 1.27968 10.9158 1.48635 11.1052C1.69303 11.2947 1.94867 11.4225 2.22428 11.474L5.17228 19.084C5.39091 19.6482 5.77501 20.133 6.27418 20.475C6.77334 20.8169 7.36423 20.9999 7.96928 21H16.0293C16.6343 20.9999 17.2252 20.8169 17.7244 20.475C18.2236 20.133 18.6077 19.6482 18.8263 19.084L21.7733 11.474C22.0472 11.423 22.3014 11.2968 22.5076 11.1095C22.7138 10.9221 22.8637 10.6811 22.9406 10.4133C23.0175 10.1456 23.0183 9.86168 22.9429 9.59349C22.8675 9.32531 22.719 9.08341 22.5139 8.8949C22.3088 8.7064 22.0552 8.57873 21.7816 8.52621C21.5081 8.47369 21.2253 8.49839 20.9649 8.59755C20.7046 8.6967 20.477 8.86639 20.3077 9.0876C20.1384 9.30881 20.034 9.5728 20.0063 9.84999C18.7473 10.013 17.1243 10.221 15.9623 9.61399C14.5853 8.89399 13.6623 7.07099 12.9863 5.73999Z"/>
</svg>
